<?xml version="1.0" encoding="UTF-8" standalone="no"?>
<svg
   viewBox="0 -7 40 40"
   version="1.1"
   id="svg4"
   sodipodi:docname="index.svg"
   width="40"
   height="40"
   inkscape:version="1.4-dev (1:1.4.0-dev+202403160151+300e768e46)"
   xmlns:inkscape="http://www.inkscape.org/namespaces/inkscape"
   xmlns:sodipodi="http://sodipodi.sourceforge.net/DTD/sodipodi-0.dtd"
   xmlns="http://www.w3.org/2000/svg"
   xmlns:svg="http://www.w3.org/2000/svg">
  <sodipodi:namedview
     id="namedview4"
     pagecolor="#ffffff"
     bordercolor="#000000"
     borderopacity="0.25"
     inkscape:showpageshadow="2"
     inkscape:pageopacity="0.0"
     inkscape:pagecheckerboard="0"
     inkscape:deskcolor="#d1d1d1"
     inkscape:zoom="5.7515528"
     inkscape:cx="66.329914"
     inkscape:cy="43.031857"
     inkscape:window-width="1440"
     inkscape:window-height="836"
     inkscape:window-x="0"
     inkscape:window-y="0"
     inkscape:window-maximized="1"
     inkscape:current-layer="svg4"
     showgrid="false" />
  <defs
     id="defs4">
    <linearGradient
       id="a"
       x1="2.5"
       x2="21.610001"
       y1="2.6500001"
       y2="25.4"
       gradientUnits="userSpaceOnUse">
      <stop
         stop-color="#FBD57F"
         id="stop3" />
      <stop
         offset="1"
         stop-color="#D17F0D"
         id="stop4" />
    </linearGradient>
  </defs>
  <rect
     style="fill:#4d4d4d;fill-opacity:1;stroke-width:1.08404"
     id="rect3"
     width="35.135258"
     height="34.9785"
     x="4.7718825"
     y="-4.2804155"
     ry="6.205864"
     transform="matrix(1,0,-0.17711716,0.98418977,0,0)" />
  <path
     d="m 23.792603,25.823583 c 1.08511,0 1.964715,-0.879606 1.964715,-1.964715 0,-1.085111 -0.879605,-1.964717 -1.964715,-1.964717 h -9.823585 c -1.085073,0 -1.964714,0.879606 -1.964714,1.964717 0,1.085109 0.879641,1.964715 1.964714,1.964715 z"
     style="clip-rule:evenodd;fill:#f2f2f2;fill-opacity:1;fill-rule:evenodd;stroke-width:1.96473"
     id="path1-5" />
  <path
     d="M 10.914478,6.8066073 C 11.817324,6.20468 13.037152,6.4486889 13.639048,7.351505 l 3.929525,5.89415 c 0.519503,0.77921 0.41673,1.816771 -0.245568,2.479087 l -5.894134,5.894137 c -0.767282,0.76723 -2.011259,0.76723 -2.778542,0 -0.767259,-0.76721 -0.767259,-2.01127 0,-2.778493 L 13.405556,14.085182 10.369572,9.5311637 C 9.767719,8.6283171 10.011654,7.4084824 10.91447,6.8065923 Z"
     style="clip-rule:evenodd;fill:#f2f2f2;fill-opacity:1;fill-rule:evenodd;stroke-width:1.96473"
     id="path1-6" />
  <path
     d="m 28.688776,6.806607 c 0.902846,-0.601927 2.122674,-0.357918 2.72457,0.544898 l 3.929525,5.89415 c 0.519503,0.77921 0.41673,1.816771 -0.245568,2.479087 l -5.894134,5.894137 c -0.767282,0.76723 -2.011259,0.76723 -2.778542,0 -0.767259,-0.76721 -0.767259,-2.01127 0,-2.778493 L 31.179854,14.085182 28.14387,9.531164 C 27.542017,8.628317 27.785952,7.408482 28.688768,6.806592 Z"
     style="clip-rule:evenodd;fill:#f2f2f2;fill-opacity:1;fill-rule:evenodd;stroke-width:1.96473"
     id="path1-7" />
</svg>
